<svg xmlns="http://www.w3.org/2000/svg" xmlns:xlink="http://www.w3.org/1999/xlink" width="500" zoomAndPan="magnify" viewBox="0 0 375 374.999991" height="500" preserveAspectRatio="xMidYMid meet" version="1.0"><defs><g/><clipPath id="92ead1f6b1"><path d="M 82.730469 57.289062 L 265.730469 57.289062 L 265.730469 264.289062 L 82.730469 264.289062 Z M 82.730469 57.289062 " clip-rule="nonzero"/></clipPath><clipPath id="89739fe950"><path d="M 254 249 L 303 249 L 303 276 L 254 276 Z M 254 249 " clip-rule="nonzero"/></clipPath><clipPath id="89eca2d98c"><path d="M 285.273438 234.730469 L 309.792969 264.089844 L 276.980469 291.492188 L 252.460938 262.136719 Z M 285.273438 234.730469 " clip-rule="nonzero"/></clipPath><clipPath id="a4c662e686"><path d="M 285.273438 234.730469 L 309.792969 264.089844 L 276.980469 291.492188 L 252.460938 262.136719 Z M 285.273438 234.730469 " clip-rule="nonzero"/></clipPath><clipPath id="b02ef39a22"><path d="M 122 74 L 169 74 L 169 113 L 122 113 Z M 122 74 " clip-rule="nonzero"/></clipPath><clipPath id="55e50a0983"><path d="M 171.515625 104.695312 L 130.261719 118.496094 L 118.605469 83.644531 L 159.855469 69.84375 Z M 171.515625 104.695312 " clip-rule="nonzero"/></clipPath><clipPath id="938d29a6ef"><path d="M 171.515625 104.695312 L 130.261719 118.496094 L 118.605469 83.644531 L 159.855469 69.84375 Z M 171.515625 104.695312 " clip-rule="nonzero"/></clipPath><clipPath id="11b5ecc336"><path d="M 54.613281 234.734375 L 101.707031 234.734375 L 101.707031 275.285156 L 54.613281 275.285156 Z M 54.613281 234.734375 " clip-rule="nonzero"/></clipPath></defs><rect x="-37.5" width="450" fill="#ffffff" y="-37.499999" height="449.999989" fill-opacity="1"/><rect x="-37.5" width="450" fill="#c1ff72" y="-37.499999" height="449.999989" fill-opacity="1"/><g clip-path="url(#92ead1f6b1)"><path fill="#ff00c7" d="M 160.777344 57.539062 C 152.09375 57.789062 142.699219 59.429688 135.644531 61.917969 C 130.351562 63.78125 125.136719 66.210938 120.65625 68.882812 C 111.523438 74.332031 103.027344 82.664062 96.867188 92.195312 C 89.753906 103.21875 86.003906 114.753906 86.238281 124.855469 C 86.4375 133.3125 89.109375 141.242188 94.300781 148.796875 C 97.855469 153.972656 101.65625 158.347656 105.738281 161.988281 C 107.511719 163.566406 111.054688 166.546875 112.484375 167.667969 C 113.144531 168.179688 114.152344 168.992188 114.742188 169.476562 C 120.25 173.980469 125.453125 179.542969 127.839844 183.5 C 129.128906 185.625 130.808594 189.382812 131.742188 192.207031 C 132.621094 194.878906 133.460938 199.050781 133.597656 201.425781 L 133.640625 202.152344 L 133.246094 203.363281 C 132.359375 206.074219 132.242188 206.953125 132.65625 207.632812 C 132.851562 207.941406 133.140625 208.003906 133.570312 207.824219 C 133.714844 207.761719 133.722656 207.671875 133.472656 210.15625 C 132.953125 215.492188 131.625 222.308594 129.328125 231.457031 C 127.285156 239.59375 124.886719 244.222656 121.046875 247.433594 C 118.027344 249.960938 113.597656 252.207031 109.046875 253.53125 C 103.664062 255.09375 97.882812 255.757812 88.398438 255.917969 C 85.511719 255.964844 85.054688 255.933594 84.570312 255.605469 C 84.292969 255.417969 84.195312 255.390625 83.941406 255.417969 C 83.1875 255.503906 82.742188 256.332031 83.0625 257.082031 C 83.179688 257.371094 83.691406 257.835938 84.132812 258.0625 C 86.175781 259.09375 89.421875 259.292969 96.390625 258.816406 C 106.777344 258.113281 114.4375 255.847656 120.746094 251.640625 C 125.777344 248.277344 128.664062 244.214844 130.996094 237.199219 C 132.855469 231.582031 134.484375 223.617188 135.550781 214.847656 C 136.164062 209.816406 136.378906 206.335938 136.25 203.472656 L 136.171875 201.851562 L 136.414062 200.933594 C 137.367188 197.285156 137.605469 193.578125 137.078125 190.628906 C 136.691406 188.492188 136.128906 186.886719 134.394531 182.898438 C 132.671875 178.96875 132.351562 177.855469 132.34375 175.855469 C 132.34375 174.734375 132.449219 174.042969 132.753906 173.074219 C 133.015625 172.265625 133.765625 170.808594 134.269531 170.144531 C 135.308594 168.761719 136.980469 167.476562 138.691406 166.734375 C 139.273438 166.484375 139.707031 166.355469 141.976562 165.71875 C 143.964844 165.164062 145.203125 164.320312 145.910156 163.039062 C 146.054688 162.785156 146.179688 162.554688 146.183594 162.546875 C 146.191406 162.535156 146.523438 162.851562 146.917969 163.261719 C 149.042969 165.46875 151.636719 167.082031 154.328125 167.855469 C 155.484375 168.1875 156.09375 168.296875 157.007812 168.3125 L 157.867188 168.332031 L 158.328125 169.675781 C 159.933594 174.347656 161.914062 178.199219 164.75 182.171875 C 168.777344 187.804688 172.015625 191.09375 176.488281 194.066406 C 182.605469 198.136719 190.796875 201.183594 199.808594 202.730469 C 201.300781 202.988281 201.390625 203.007812 201.746094 203.25 C 202.277344 203.625 203.203125 204.613281 203.667969 205.304688 C 204.160156 206.046875 204.683594 207.148438 204.914062 207.929688 C 205.472656 209.78125 205.515625 211.90625 205.058594 214.613281 C 204.644531 217.078125 204.230469 218.640625 202.957031 222.496094 C 201.414062 227.160156 201.023438 228.800781 200.886719 231.269531 C 200.734375 233.878906 201.210938 236.339844 202.261719 238.363281 C 202.492188 238.804688 202.664062 239.171875 202.652344 239.1875 C 202.644531 239.199219 202.214844 239.242188 201.703125 239.277344 C 197.066406 239.628906 194.390625 240.5625 193.632812 242.097656 C 193.46875 242.4375 193.441406 242.578125 193.441406 243.082031 C 193.449219 243.609375 193.46875 243.71875 193.683594 244.152344 C 193.996094 244.785156 194.867188 245.667969 195.757812 246.257812 C 198.4375 248.023438 203.695312 249.800781 210.082031 251.101562 C 213.28125 251.753906 215.832031 252.148438 221.570312 252.875 C 229.757812 253.917969 233.089844 254.519531 237.207031 255.710938 C 241.140625 256.84375 243.886719 258.054688 249.386719 261.074219 C 253.226562 263.175781 254.8125 263.863281 256.738281 264.261719 C 257.691406 264.464844 259.027344 264.476562 259.800781 264.296875 C 260.949219 264.035156 262.222656 263.488281 263.253906 262.816406 C 263.84375 262.441406 264.796875 261.496094 265.261719 260.851562 C 265.621094 260.339844 265.648438 260.132812 265.359375 260.152344 C 265.144531 260.167969 263.648438 260.71875 262.097656 261.363281 C 260.480469 262.035156 259.824219 262.199219 258.730469 262.207031 C 257.734375 262.207031 257.125 262.097656 255.878906 261.695312 C 254.398438 261.203125 253.449219 260.761719 249.628906 258.734375 C 243.984375 255.738281 240.773438 254.445312 236.054688 253.261719 C 232.574219 252.394531 229.625 251.890625 222.640625 250.976562 C 216.027344 250.113281 212.71875 249.566406 208.871094 248.714844 C 202.292969 247.253906 197.453125 245.503906 195.828125 244 C 195.039062 243.269531 194.984375 242.941406 195.585938 242.527344 C 196.644531 241.792969 199.550781 241.234375 203.246094 241.035156 L 204.117188 240.992188 L 204.734375 241.566406 C 206.671875 243.40625 209.839844 245.316406 214.097656 247.199219 C 221.183594 250.339844 226.808594 251.460938 231.273438 250.625 C 233.292969 250.242188 234.695312 249.421875 235.242188 248.304688 C 235.421875 247.9375 235.445312 247.820312 235.445312 247.234375 C 235.445312 246.636719 235.421875 246.535156 235.230469 246.121094 C 234.476562 244.527344 231.949219 243.261719 227.148438 242.070312 C 222.234375 240.851562 215.175781 239.753906 209.738281 239.34375 C 209.183594 239.304688 207.980469 239.246094 207.050781 239.214844 C 205.820312 239.164062 205.34375 239.125 205.261719 239.054688 C 205.078125 238.910156 204.65625 238.3125 204.320312 237.71875 C 203.148438 235.691406 202.761719 232.949219 203.230469 230.070312 C 203.496094 228.5 203.855469 227.1875 205.023438 223.617188 C 206.601562 218.800781 207.246094 215.929688 207.453125 212.792969 C 207.683594 209.339844 206.78125 206.15625 204.933594 203.894531 C 204.753906 203.671875 204.625 203.472656 204.636719 203.453125 C 204.65625 203.4375 205.371094 203.484375 206.222656 203.5625 C 213.957031 204.273438 218.582031 204.109375 223.183594 202.9375 C 225.160156 202.433594 226.425781 201.96875 227.9375 201.210938 C 230.136719 200.101562 231.304688 199.078125 232.019531 197.644531 C 232.511719 196.675781 232.667969 195.886719 232.621094 194.710938 C 232.566406 193.371094 232.332031 192.585938 231.300781 190.339844 C 230.636719 188.878906 230.496094 188.457031 230.496094 187.902344 C 230.496094 186.761719 231.035156 186.007812 233.652344 183.5 C 234.917969 182.285156 235.484375 181.488281 235.867188 180.375 C 236.34375 178.960938 236.238281 177.199219 235.601562 175.9375 C 235.179688 175.09375 234.253906 174.359375 233.355469 174.144531 C 233.152344 174.097656 232.988281 174.042969 232.988281 174.015625 C 232.988281 173.992188 233.25 173.863281 233.574219 173.722656 C 234.550781 173.308594 235.117188 172.933594 235.753906 172.296875 C 236.871094 171.175781 237.257812 170.089844 237.328125 167.882812 C 237.375 166.347656 237.320312 165.863281 236.820312 163.386719 C 236.398438 161.269531 236.300781 160.304688 236.441406 159.453125 C 236.675781 158.015625 237.355469 156.796875 238.640625 155.53125 C 239.546875 154.640625 239.75 154.480469 242.78125 152.398438 C 245.320312 150.644531 246.503906 149.179688 246.972656 147.191406 C 247.179688 146.328125 247.132812 144.875 246.867188 143.921875 C 246.648438 143.132812 246.113281 141.988281 245.6875 141.386719 C 244.695312 140.003906 243.5625 139.097656 240.253906 137.070312 C 235.75 134.308594 233.832031 132.839844 232.691406 131.277344 C 231.757812 129.996094 231 127.652344 230.78125 125.339844 C 230.511719 122.476562 230.664062 119.992188 231.535156 113.058594 C 232.550781 104.941406 232.753906 100.269531 232.253906 95.929688 C 231.457031 88.941406 228.515625 82.957031 223.757812 78.671875 C 217.839844 73.335938 208.851562 68.597656 195.414062 63.71875 C 193.246094 62.929688 189.863281 61.808594 188.007812 61.261719 C 178.972656 58.605469 169.359375 57.289062 160.777344 57.539062 Z M 168.390625 60.285156 C 177.074219 60.980469 184.429688 62.582031 193.503906 65.773438 C 204.472656 69.628906 212.414062 73.386719 218.261719 77.488281 C 223.597656 81.234375 226.335938 84.554688 228.199219 89.53125 C 229.824219 93.882812 230.28125 98.886719 229.667969 105.6875 C 229.507812 107.429688 229.257812 109.507812 228.765625 113.160156 C 228.074219 118.332031 227.914062 120.082031 227.910156 122.640625 C 227.910156 123.769531 227.941406 124.871094 227.992188 125.269531 C 228.515625 129.554688 229.867188 132.382812 232.386719 134.488281 C 233.6875 135.566406 235.285156 136.523438 238.695312 138.230469 C 241.125 139.449219 241.90625 139.898438 242.855469 140.605469 C 244.65625 141.953125 245.652344 143.769531 245.652344 145.710938 C 245.652344 146.804688 245.332031 147.65625 244.578125 148.613281 C 243.90625 149.457031 243.152344 150.023438 240.390625 151.78125 C 238.925781 152.714844 238.066406 153.367188 237.214844 154.1875 C 236.273438 155.109375 235.699219 155.878906 235.203125 156.894531 C 234.289062 158.742188 234.191406 160.214844 234.792969 163.101562 C 235.457031 166.292969 235.589844 167.261719 235.527344 168.417969 C 235.429688 170.195312 234.828125 171.171875 233.402344 171.902344 C 233.078125 172.070312 232.253906 172.414062 231.570312 172.671875 C 229.515625 173.441406 228.851562 173.800781 228.65625 174.277344 C 228.425781 174.816406 228.628906 175.324219 229.160156 175.558594 C 229.457031 175.6875 229.554688 175.695312 230.9375 175.648438 C 232.585938 175.59375 233.058594 175.65625 233.574219 176.015625 C 234.171875 176.421875 234.574219 177.507812 234.480469 178.457031 C 234.421875 179.121094 234.191406 179.773438 233.816406 180.347656 C 233.402344 180.96875 232.980469 181.40625 231.777344 182.429688 C 229.3125 184.519531 228.394531 185.867188 228.246094 187.625 C 228.164062 188.628906 228.394531 189.527344 229.230469 191.425781 C 230.425781 194.136719 230.578125 195.183594 229.96875 196.429688 C 229.652344 197.078125 229.113281 197.652344 228.332031 198.179688 C 226.460938 199.429688 223.722656 200.40625 220.496094 200.972656 C 217.050781 201.582031 212.851562 201.625 206.621094 201.113281 C 197.578125 200.367188 189.011719 198.152344 182.367188 194.835938 C 175.925781 191.613281 171.109375 187.121094 165.960938 179.523438 C 163.679688 176.152344 161.699219 172.089844 160.398438 168.105469 C 160.03125 166.96875 159.976562 166.742188 160.011719 166.445312 C 160.109375 165.59375 160.136719 164.078125 160.058594 163.449219 C 159.84375 161.691406 159.324219 159.691406 158.929688 159.101562 C 158.550781 158.535156 157.90625 158.304688 157.402344 158.5625 C 156.917969 158.804688 156.738281 159.09375 156.660156 159.730469 C 156.558594 160.589844 156.835938 163.558594 157.1875 165.371094 C 157.277344 165.847656 157.355469 166.242188 157.355469 166.25 C 157.355469 166.265625 157.179688 166.269531 156.972656 166.269531 C 155.320312 166.269531 152.074219 164.796875 149.992188 163.09375 C 148.816406 162.132812 147.546875 160.707031 146.59375 159.28125 C 145.96875 158.347656 145.453125 157.335938 145.570312 157.296875 C 145.832031 157.199219 146.746094 156.535156 147.179688 156.125 C 148.234375 155.128906 149.347656 153.351562 149.984375 151.640625 C 151.296875 148.09375 151.417969 142.828125 150.234375 140.355469 C 149.722656 139.285156 149.058594 138.777344 148.15625 138.777344 C 147.4375 138.777344 146.90625 139.054688 146.152344 139.824219 C 144.191406 141.800781 142.457031 145.824219 142.019531 149.386719 C 141.867188 150.644531 141.914062 153.019531 142.121094 154.125 C 142.324219 155.191406 142.324219 155.164062 142.011719 155 C 140.765625 154.363281 139.214844 152.714844 136.28125 148.902344 C 135.832031 148.3125 134.925781 147.160156 134.269531 146.335938 C 133.597656 145.492188 132.953125 144.613281 132.789062 144.292969 C 132.339844 143.464844 132.128906 143.1875 131.410156 142.460938 C 130.914062 141.960938 130.636719 141.609375 130.304688 141.054688 C 129.347656 139.441406 129.066406 138.238281 129.5 137.582031 C 129.792969 137.136719 130.519531 136.9375 131.363281 137.0625 C 132.492188 137.234375 133.632812 137.699219 136.039062 138.972656 C 138.484375 140.257812 139.519531 140.675781 140.84375 140.910156 C 142.394531 141.179688 143.824219 140.902344 145.148438 140.078125 C 145.769531 139.683594 146.199219 139.339844 147.445312 138.21875 C 148.695312 137.089844 149.292969 136.652344 150.191406 136.203125 C 151.207031 135.699219 151.851562 135.53125 152.820312 135.53125 C 153.804688 135.527344 154.175781 135.628906 156.417969 136.515625 C 159.664062 137.796875 161.441406 138.15625 163.070312 137.871094 C 165.394531 137.46875 167.070312 136.078125 169.046875 132.917969 C 169.367188 132.40625 169.878906 131.609375 170.183594 131.152344 C 172.265625 128.019531 173.761719 126.871094 176.039062 126.65625 C 176.734375 126.59375 177.550781 126.695312 179.316406 127.082031 C 180.742188 127.402344 180.804688 127.410156 182.023438 127.410156 C 183.484375 127.417969 183.789062 127.355469 184.859375 126.828125 C 186.050781 126.238281 187.027344 125.355469 188.210938 123.78125 C 189.523438 122.039062 190.726562 119.796875 191.433594 117.789062 C 191.703125 117.015625 191.628906 117.058594 192.472656 117.242188 C 193.308594 117.429688 194.886719 117.417969 195.785156 117.214844 C 197.757812 116.765625 199.875 115.761719 201.71875 114.398438 C 202.589844 113.761719 204.152344 112.191406 204.707031 111.417969 C 205.988281 109.617188 206.492188 108.332031 206.503906 106.863281 C 206.503906 106.191406 206.484375 106.035156 206.304688 105.515625 C 206.046875 104.796875 205.730469 104.296875 205.15625 103.738281 C 204.679688 103.265625 204.351562 103.015625 203.820312 102.710938 C 203.632812 102.601562 203.46875 102.511719 203.453125 102.503906 C 203.445312 102.496094 203.503906 102.226562 203.578125 101.910156 C 203.839844 100.796875 203.945312 99.800781 203.953125 98.351562 C 203.957031 96.421875 203.75 94.832031 203.199219 92.601562 C 201.453125 85.558594 197.085938 79.980469 191.601562 77.808594 C 188.789062 76.695312 185.65625 76.527344 183.054688 77.359375 C 181.640625 77.808594 180.480469 78.5 179.476562 79.480469 C 178.652344 80.296875 178.132812 81.101562 177.664062 82.296875 L 177.449219 82.851562 L 176.785156 83.207031 C 175.484375 83.902344 174.3125 84.804688 173.261719 85.910156 C 172.742188 86.457031 171.878906 87.542969 171.609375 87.972656 C 171.53125 88.105469 171.46875 88.109375 170.820312 88.089844 C 169.449219 88.035156 168.703125 88.347656 167.65625 89.382812 C 166.785156 90.261719 166.417969 90.84375 165.019531 93.5625 C 163.25 97.023438 162.316406 98.503906 160.910156 100.089844 C 158.597656 102.683594 154.773438 104.277344 152.082031 103.757812 C 150.972656 103.542969 150.101562 103.085938 149.347656 102.316406 C 147.824219 100.761719 147.542969 98.933594 148.441406 96.554688 C 148.558594 96.25 149.132812 95.003906 149.726562 93.785156 C 151.390625 90.351562 151.867188 89.199219 152.273438 87.597656 C 152.414062 87.066406 152.550781 86.304688 152.601562 85.8125 L 152.675781 84.957031 L 153.964844 84.1875 C 156.101562 82.902344 157.597656 82.167969 159.050781 81.683594 C 159.859375 81.417969 161.214844 81.085938 161.511719 81.085938 C 161.691406 81.085938 161.691406 81.085938 161.628906 81.449219 C 161.527344 81.996094 161.609375 82.90625 161.808594 83.542969 C 162.28125 85.011719 163.320312 86.160156 164.863281 86.933594 C 165.773438 87.398438 166.480469 87.585938 167.46875 87.640625 C 170.316406 87.800781 172.617188 86.0625 172.496094 83.847656 C 172.464844 83.398438 172.417969 83.21875 172.195312 82.769531 C 171.601562 81.566406 169.925781 80.359375 167.769531 79.59375 L 167.214844 79.390625 L 167.699219 79.34375 C 168.480469 79.269531 169.976562 79.414062 171.949219 79.746094 C 174.945312 80.257812 176.175781 80.238281 177.316406 79.675781 C 177.953125 79.359375 178.28125 79.074219 178.613281 78.570312 C 179.039062 77.90625 179.171875 77.351562 179.136719 76.429688 C 179.097656 75.511719 178.921875 74.929688 178.410156 74.070312 C 177.96875 73.332031 176.847656 72.203125 175.96875 71.613281 C 175.164062 71.082031 173.511719 70.265625 172.453125 69.882812 C 170.167969 69.054688 167.359375 68.492188 165.441406 68.492188 C 162.695312 68.492188 159.324219 69.496094 157 71.011719 L 156.40625 71.398438 L 155.679688 71.0625 C 153.140625 69.863281 149.367188 69.242188 145.878906 69.449219 C 139.882812 69.808594 135.363281 71.816406 131.191406 75.96875 C 130.011719 77.144531 129.191406 78.1875 128.683594 79.136719 L 128.359375 79.753906 L 127.828125 79.84375 C 126.953125 79.980469 125.535156 80.359375 124.617188 80.714844 C 120.296875 82.347656 117.148438 84.957031 114.324219 89.238281 C 111.691406 93.230469 110.410156 97.140625 110.527344 100.84375 C 110.589844 102.707031 110.914062 104.128906 111.578125 105.480469 C 112.707031 107.742188 115.050781 109.339844 118.214844 109.976562 C 122.320312 110.808594 126.3125 109.792969 128.921875 107.265625 L 129.605469 106.601562 L 131.007812 106.78125 C 131.777344 106.886719 133.167969 107.042969 134.101562 107.140625 C 137.761719 107.523438 139.429688 107.804688 141.058594 108.332031 C 141.722656 108.546875 142.753906 108.976562 142.753906 109.035156 C 142.753906 109.058594 142.484375 109.15625 142.152344 109.246094 C 140.855469 109.589844 139.445312 110.207031 138.566406 110.792969 C 138.019531 111.160156 137.097656 112.09375 136.816406 112.578125 C 136.394531 113.300781 136.289062 113.695312 136.28125 114.578125 C 136.28125 115.015625 136.308594 115.464844 136.339844 115.582031 C 136.394531 115.789062 136.394531 115.785156 136.0625 115.472656 C 133.832031 113.339844 131.175781 112.15625 127.980469 111.882812 C 126.195312 111.722656 124.285156 112 122.71875 112.640625 L 122.078125 112.90625 L 121.53125 112.585938 C 120.078125 111.75 116.734375 110.386719 114.816406 109.847656 C 111.9375 109.035156 110.023438 109.472656 108.875 111.195312 C 108.160156 112.269531 107.570312 114.183594 107.316406 116.273438 C 107.207031 117.160156 107.207031 119.382812 107.316406 120.324219 C 107.855469 124.925781 109.496094 129.222656 111.785156 132.050781 C 113.585938 134.265625 115.964844 136.066406 118.007812 136.75 C 119.828125 137.359375 122.109375 137.410156 123.679688 136.863281 C 124.222656 136.683594 124.269531 136.683594 124.359375 136.945312 C 124.519531 137.402344 125.191406 138.679688 125.535156 139.195312 C 125.730469 139.492188 126.152344 139.996094 126.464844 140.320312 C 126.933594 140.8125 127.101562 141.046875 127.417969 141.679688 C 128.082031 143 128.941406 144.210938 130.933594 146.597656 C 131.464844 147.234375 131.910156 147.789062 131.921875 147.828125 C 131.945312 147.863281 132.109375 148.335938 132.3125 148.867188 C 133.121094 151.082031 134.125 152.640625 135.929688 154.5 C 137.6875 156.300781 139.859375 157.78125 142.546875 159.011719 C 143.914062 159.636719 144.324219 159.90625 144.539062 160.332031 L 144.703125 160.660156 L 144.558594 161.144531 C 144.371094 161.746094 143.902344 162.390625 143.375 162.75 C 142.855469 163.109375 142.128906 163.371094 140.574219 163.773438 C 138.890625 164.207031 138.21875 164.445312 137.113281 164.992188 C 135.222656 165.910156 133.859375 167.03125 132.648438 168.660156 C 130.28125 171.839844 129.554688 175.308594 130.496094 178.988281 C 130.824219 180.25 131.222656 181.230469 132.574219 184.035156 C 134.269531 187.570312 134.933594 189.464844 135.25 191.632812 C 135.382812 192.546875 135.425781 195.285156 135.300781 195.492188 C 135.257812 195.582031 135.183594 195.367188 135.007812 194.664062 C 134.316406 191.769531 133.382812 189.203125 131.832031 185.890625 C 129.410156 180.707031 127.875 178.851562 116.824219 167.757812 C 113.808594 164.726562 113.316406 164.265625 111.234375 162.5 C 109.980469 161.433594 108.527344 160.195312 108.015625 159.738281 C 106.785156 158.652344 103.675781 155.539062 102.679688 154.398438 C 99.398438 150.632812 96.4375 146.527344 94.460938 143 C 91.726562 138.121094 90.058594 132.710938 89.53125 127.035156 C 89.414062 125.816406 89.414062 122.226562 89.523438 120.945312 C 90.328125 111.882812 93.996094 102.242188 100.160156 93.023438 C 105.890625 84.449219 112.699219 77.433594 120.097656 72.484375 C 125.9375 68.578125 133.148438 65.242188 140.019531 63.261719 C 145.671875 61.636719 152.296875 60.570312 159.117188 60.195312 C 160.828125 60.101562 166.757812 60.160156 168.390625 60.285156 Z M 166.289062 70.847656 C 169.035156 71.121094 172.613281 72.367188 174.464844 73.691406 C 175.277344 74.265625 176.097656 75.144531 176.398438 75.738281 C 176.589844 76.140625 176.625 76.277344 176.625 76.714844 C 176.625 77.199219 176.613281 77.234375 176.402344 77.421875 C 175.949219 77.828125 174.714844 77.863281 172.464844 77.53125 C 169.171875 77.039062 167.527344 77.027344 165.824219 77.453125 C 164.957031 77.675781 164.199219 78 163.566406 78.429688 L 163.035156 78.796875 L 162.046875 78.875 C 159.132812 79.101562 156.785156 79.933594 153.546875 81.871094 L 152.34375 82.597656 L 152.082031 82.042969 C 151.085938 79.933594 149.277344 78.84375 146.484375 78.695312 C 143.5625 78.527344 140.503906 79.695312 139.15625 81.488281 C 137.921875 83.136719 137.992188 85.199219 139.339844 86.625 C 140.351562 87.703125 141.578125 88.203125 143.375 88.261719 C 145.242188 88.332031 146.773438 87.988281 149.007812 86.992188 C 149.382812 86.824219 149.699219 86.699219 149.714844 86.714844 C 149.769531 86.761719 149.375 87.980469 149.035156 88.832031 C 148.847656 89.308594 148.171875 90.789062 147.527344 92.125 C 146.296875 94.699219 145.976562 95.4375 145.707031 96.378906 C 145.332031 97.660156 145.292969 99.164062 145.582031 100.289062 C 145.769531 100.996094 146.378906 102.226562 146.84375 102.835938 C 148.019531 104.386719 149.632812 105.480469 151.402344 105.929688 C 152.488281 106.207031 153.644531 106.242188 154.925781 106.027344 L 155.230469 105.976562 L 155.179688 106.179688 C 155.160156 106.289062 155.117188 106.648438 155.097656 106.980469 L 155.050781 107.582031 L 154.800781 107.617188 C 154.226562 107.707031 152.621094 107.875 150.640625 108.039062 C 149.480469 108.136719 147.941406 108.277344 147.230469 108.359375 L 145.921875 108.503906 L 145.535156 108.191406 C 143.949219 106.953125 141.714844 105.992188 139.214844 105.488281 C 137.964844 105.238281 136.671875 105.066406 133.964844 104.789062 C 131.320312 104.519531 130.988281 104.476562 130.988281 104.421875 C 130.988281 104.402344 131.066406 104.160156 131.160156 103.882812 C 131.464844 103.003906 131.554688 102.429688 131.5625 101.433594 C 131.5625 100.691406 131.527344 100.386719 131.410156 99.953125 C 130.925781 98.136719 129.652344 96.664062 127.847656 95.828125 C 126.378906 95.136719 124.925781 95.09375 123.710938 95.703125 C 122.296875 96.410156 121.585938 97.769531 121.667969 99.597656 C 121.785156 102.046875 123.28125 104.269531 125.605469 105.445312 C 125.980469 105.632812 126.449219 105.839844 126.664062 105.902344 C 126.871094 105.972656 127.042969 106.046875 127.042969 106.082031 C 127.042969 106.179688 126.054688 106.835938 125.453125 107.140625 C 124.152344 107.792969 122.953125 108.066406 121.199219 108.125 C 119.75 108.171875 118.867188 108.089844 117.738281 107.796875 C 114.125 106.886719 112.546875 104.890625 112.332031 100.96875 C 112.113281 96.851562 114.324219 91.585938 118.054688 87.351562 C 120.207031 84.90625 123.09375 83.066406 126.285156 82.105469 C 126.71875 81.972656 127.21875 81.84375 127.390625 81.8125 L 127.703125 81.765625 L 127.707031 82.726562 C 127.707031 83.808594 127.8125 84.332031 128.1875 85.136719 C 128.753906 86.375 129.742188 87.234375 130.96875 87.566406 C 131.5 87.703125 132.636719 87.703125 133.167969 87.558594 C 135.257812 87.003906 136.582031 85.175781 136.261719 83.28125 C 136.007812 81.738281 134.800781 80.5625 132.925781 80.027344 C 132.457031 79.890625 131.320312 79.703125 130.976562 79.703125 C 130.828125 79.703125 130.710938 79.667969 130.710938 79.628906 C 130.710938 79.371094 132.007812 77.785156 132.988281 76.847656 C 135.804688 74.152344 138.914062 72.507812 142.65625 71.726562 C 144.261719 71.386719 145.140625 71.304688 147.148438 71.304688 C 149.152344 71.304688 150.03125 71.386719 151.472656 71.710938 C 152.632812 71.972656 154.261719 72.535156 154.703125 72.820312 L 154.855469 72.921875 L 154.621094 73.324219 C 154.226562 73.96875 154.074219 74.519531 154.074219 75.242188 C 154.074219 76.035156 154.253906 76.519531 154.710938 76.992188 C 155.203125 77.488281 155.597656 77.65625 156.316406 77.65625 C 157.027344 77.664062 157.507812 77.46875 158.046875 76.964844 C 159.019531 76.050781 159.144531 74.546875 158.363281 73.253906 L 158.128906 72.851562 L 158.535156 72.609375 C 159.554688 71.988281 161.082031 71.394531 162.410156 71.09375 C 163.78125 70.789062 164.957031 70.714844 166.289062 70.847656 Z M 156.695312 74.632812 C 156.855469 75.003906 156.828125 75.324219 156.628906 75.515625 C 156.539062 75.613281 156.414062 75.691406 156.355469 75.691406 C 156.21875 75.691406 156.109375 75.476562 156.109375 75.226562 C 156.109375 74.984375 156.441406 74.292969 156.53125 74.347656 C 156.566406 74.367188 156.640625 74.492188 156.695312 74.632812 Z M 188.238281 79.019531 C 192.453125 79.648438 196.394531 82.726562 199.046875 87.453125 C 200.886719 90.734375 202.109375 95.570312 201.960938 99.011719 C 201.925781 99.9375 201.800781 100.898438 201.640625 101.507812 L 201.570312 101.757812 L 201.003906 101.632812 C 198.601562 101.105469 196.238281 101.527344 194.941406 102.707031 C 193.738281 103.8125 193.441406 105.492188 194.1875 107.03125 C 194.445312 107.550781 195.085938 108.277344 195.53125 108.539062 C 197.488281 109.6875 200.179688 108.550781 201.960938 105.824219 C 202.152344 105.523438 202.375 105.15625 202.445312 105.007812 C 202.511719 104.871094 202.601562 104.753906 202.652344 104.753906 C 202.699219 104.753906 202.914062 104.917969 203.136719 105.113281 C 204.015625 105.921875 204.089844 106.789062 203.40625 108.261719 C 202.816406 109.515625 201.6875 110.914062 200.472656 111.894531 C 198.867188 113.195312 196.589844 114.351562 194.929688 114.726562 C 194.257812 114.871094 193.003906 114.890625 192.511719 114.765625 L 192.207031 114.683594 L 192.222656 113.75 C 192.25 111.902344 191.808594 110.488281 190.902344 109.492188 C 190.328125 108.863281 189.820312 108.628906 189.058594 108.621094 C 187.59375 108.613281 186.546875 110.214844 186.824219 112.035156 C 187.03125 113.367188 187.765625 114.628906 188.886719 115.554688 L 189.308594 115.910156 L 189.117188 116.476562 C 188.339844 118.765625 186.320312 122.085938 184.8125 123.546875 C 183.503906 124.820312 182.554688 125.015625 180.121094 124.515625 C 177.734375 124.03125 176.707031 123.929688 175.519531 124.054688 C 173.3125 124.296875 171.800781 125.007812 170.164062 126.585938 C 168.863281 127.84375 167.84375 129.179688 166.21875 131.761719 C 164.855469 133.933594 164.273438 134.59375 163.3125 135.054688 C 162.835938 135.277344 162.738281 135.296875 162.003906 135.324219 C 160.710938 135.375 159.753906 135.136719 157.144531 134.128906 C 156.328125 133.816406 155.449219 133.492188 155.195312 133.410156 C 153.027344 132.746094 150.703125 133.007812 148.566406 134.140625 C 147.484375 134.714844 146.785156 135.242188 144.890625 136.890625 C 143.9375 137.71875 143.339844 138.113281 142.746094 138.316406 C 142.371094 138.445312 142.191406 138.460938 141.578125 138.4375 C 140.371094 138.382812 139.730469 138.136719 136.25 136.328125 C 134.558594 135.457031 133.605469 135.042969 132.71875 134.800781 C 130.160156 134.09375 128.019531 134.746094 127.050781 136.515625 L 126.851562 136.882812 L 126.734375 136.652344 C 126.671875 136.53125 126.546875 136.238281 126.457031 136.003906 L 126.296875 135.582031 L 126.898438 134.992188 C 127.875 134.039062 128.476562 133.019531 128.671875 131.988281 C 128.800781 131.320312 128.800781 130.9375 128.671875 130.335938 C 128.464844 129.339844 127.777344 128.414062 126.996094 128.058594 C 126.484375 127.832031 125.679688 127.84375 125.167969 128.09375 C 124.394531 128.46875 123.757812 129.347656 123.433594 130.476562 C 123.300781 130.929688 123.28125 131.179688 123.28125 132.085938 C 123.289062 132.792969 123.320312 133.339844 123.398438 133.679688 C 123.53125 134.316406 123.542969 134.300781 122.65625 134.515625 C 121.722656 134.746094 120.410156 134.738281 119.488281 134.488281 C 116.554688 133.707031 113.386719 130.667969 111.78125 127.105469 C 110.867188 125.078125 110.054688 122.21875 109.785156 120.058594 C 109.433594 117.273438 109.933594 113.644531 110.84375 112.394531 C 111.378906 111.644531 112.566406 111.570312 114.429688 112.164062 C 115.40625 112.476562 117.929688 113.488281 119.003906 114 L 119.925781 114.433594 L 119.578125 114.871094 C 118.214844 116.550781 118.152344 118.792969 119.410156 120.351562 C 120.046875 121.140625 120.898438 121.570312 121.925781 121.625 C 123.039062 121.679688 123.972656 121.332031 124.726562 120.578125 C 125.417969 119.886719 125.730469 119.140625 125.730469 118.179688 C 125.730469 117.25 125.472656 116.503906 124.832031 115.519531 C 124.636719 115.222656 124.492188 114.96875 124.503906 114.945312 C 124.527344 114.933594 124.84375 114.851562 125.21875 114.773438 C 126.207031 114.558594 128.019531 114.558594 129.085938 114.773438 C 132.53125 115.457031 134.96875 117.484375 136.011719 120.558594 C 136.28125 121.347656 136.25 121.367188 135.582031 120.773438 C 133.578125 118.988281 131.867188 118.179688 130.109375 118.179688 C 128.441406 118.179688 127.09375 119.035156 126.351562 120.566406 C 125.929688 121.4375 125.839844 121.875 125.839844 122.988281 C 125.839844 124.351562 126.074219 125.140625 126.808594 126.246094 C 127.757812 127.679688 129.375 128.738281 131.195312 129.113281 C 131.820312 129.242188 132.070312 129.257812 132.925781 129.230469 C 134.765625 129.160156 136.097656 128.621094 137.292969 127.449219 L 137.707031 127.042969 L 138.277344 127.535156 C 139.804688 128.847656 141.972656 130.003906 144.378906 130.773438 C 146.578125 131.472656 151.878906 132.550781 154.792969 132.882812 C 156.011719 133.019531 158.050781 133.019531 158.992188 132.875 C 160.945312 132.59375 162.597656 131.78125 163.519531 130.667969 C 163.898438 130.210938 164.351562 129.332031 164.480469 128.800781 C 164.8125 127.394531 164.640625 125.722656 163.988281 124.128906 L 163.71875 123.464844 L 163.832031 122.953125 C 163.996094 122.117188 164.039062 120.234375 163.898438 119.285156 C 163.554688 116.945312 162.703125 114.816406 161.222656 112.613281 C 160.964844 112.226562 160.316406 111.320312 159.78125 110.601562 C 159.25 109.875 158.808594 109.265625 158.808594 109.246094 C 158.808594 109.222656 159.203125 109.078125 159.691406 108.917969 C 160.683594 108.585938 161.914062 108.019531 162.523438 107.605469 C 163.054688 107.246094 163.589844 106.664062 163.824219 106.207031 C 164.21875 105.425781 164.113281 104.433594 163.546875 103.695312 C 163.25 103.308594 162.585938 102.859375 162.074219 102.699219 C 161.859375 102.636719 161.664062 102.574219 161.652344 102.558594 C 161.636719 102.554688 161.996094 102.160156 162.453125 101.679688 C 164.09375 99.984375 165.160156 98.378906 167.132812 94.601562 C 168.105469 92.734375 168.570312 91.980469 169.074219 91.417969 C 169.441406 91.019531 169.921875 90.652344 169.988281 90.71875 C 170.003906 90.742188 169.863281 91.078125 169.683594 91.472656 C 168.613281 93.765625 167.707031 96.511719 167.347656 98.558594 C 167.179688 99.535156 167.171875 101.238281 167.339844 101.847656 C 167.617188 102.863281 168.136719 103.675781 168.964844 104.371094 C 169.222656 104.585938 170.5625 105.527344 171.941406 106.460938 C 173.324219 107.398438 174.472656 108.199219 174.488281 108.25 C 174.507812 108.289062 174.4375 108.609375 174.34375 108.945312 C 173.144531 113.050781 173.464844 117.242188 175.179688 119.8125 C 176.25 121.429688 177.976562 122.324219 179.511719 122.066406 C 180.300781 121.9375 180.957031 121.574219 181.574219 120.953125 C 181.855469 120.664062 182.195312 120.238281 182.328125 120.019531 C 182.625 119.511719 182.992188 118.542969 183.152344 117.847656 C 183.316406 117.085938 183.308594 115.429688 183.144531 114.683594 C 182.578125 112.234375 180.734375 109.707031 178.058594 107.703125 L 177.433594 107.230469 L 177.945312 105.734375 C 179.007812 102.675781 179.28125 101.417969 179.339844 99.460938 C 179.394531 97.640625 179.1875 96.359375 178.605469 94.953125 C 177.726562 92.816406 175.710938 90.402344 173.773438 89.15625 C 173.53125 89.003906 173.339844 88.851562 173.339844 88.816406 C 173.339844 88.679688 174.015625 87.8125 174.542969 87.28125 C 174.855469 86.96875 175.339844 86.546875 175.621094 86.332031 C 176.335938 85.800781 177.214844 85.28125 177.277344 85.351562 C 177.304688 85.386719 177.367188 85.613281 177.414062 85.863281 C 177.898438 88.332031 180.035156 90.429688 182.875 91.203125 C 183.609375 91.40625 185.726562 91.425781 186.417969 91.238281 C 188.007812 90.808594 189.199219 89.703125 189.523438 88.320312 C 189.640625 87.835938 189.628906 86.867188 189.496094 86.339844 C 188.859375 83.847656 186.277344 82.203125 182.578125 81.925781 C 182.121094 81.890625 181.46875 81.882812 181.125 81.910156 C 180.785156 81.9375 180.488281 81.953125 180.472656 81.9375 C 180.417969 81.898438 180.839844 81.363281 181.246094 80.949219 C 182.210938 79.988281 183.53125 79.34375 185.136719 79.054688 C 185.800781 78.9375 187.546875 78.914062 188.238281 79.019531 Z M 147.574219 81.183594 C 148.828125 81.59375 149.546875 82.355469 149.859375 83.613281 C 149.964844 84.050781 149.964844 84.070312 149.839844 84.167969 C 149.769531 84.222656 149.132812 84.5625 148.425781 84.914062 C 146.425781 85.925781 144.972656 86.347656 143.519531 86.347656 C 142.324219 86.347656 141.402344 86.035156 140.808594 85.441406 C 140.253906 84.886719 140.089844 84.089844 140.386719 83.414062 C 140.765625 82.570312 141.972656 81.71875 143.394531 81.289062 C 144.308594 81.019531 144.816406 80.957031 145.9375 80.976562 C 146.878906 80.996094 147.078125 81.019531 147.574219 81.183594 Z M 166.03125 81.15625 C 168.523438 81.667969 170.707031 83.003906 170.707031 84.007812 C 170.707031 85.03125 169.144531 85.8125 167.566406 85.585938 C 166.480469 85.425781 165.574219 85.003906 164.835938 84.296875 C 163.84375 83.363281 163.5 82.238281 163.898438 81.234375 L 164.015625 80.929688 L 164.683594 80.96875 C 165.046875 80.992188 165.65625 81.074219 166.03125 81.15625 Z M 131.828125 81.808594 C 132.96875 82.097656 133.679688 82.546875 133.992188 83.175781 C 134.226562 83.640625 134.21875 84 133.984375 84.472656 C 133.550781 85.351562 132.171875 85.808594 131.230469 85.386719 C 130.539062 85.074219 129.992188 84.332031 129.804688 83.449219 C 129.722656 83.039062 129.75 81.800781 129.847656 81.640625 C 129.929688 81.507812 131.007812 81.601562 131.828125 81.808594 Z M 183.101562 84.402344 C 185.308594 84.902344 186.785156 86.097656 186.796875 87.398438 C 186.796875 87.890625 186.652344 88.109375 186.140625 88.367188 C 185.628906 88.625 185.054688 88.71875 184.339844 88.679688 C 182.535156 88.554688 180.792969 87.476562 180.078125 86.027344 C 179.753906 85.363281 179.59375 84.449219 179.792969 84.375 C 180.3125 84.175781 182.167969 84.1875 183.101562 84.402344 Z M 172.707031 91.683594 C 174.3125 92.878906 175.628906 94.476562 176.28125 96.015625 C 176.730469 97.09375 176.875 97.839844 176.917969 99.230469 C 176.957031 100.621094 176.875 101.285156 176.488281 102.710938 C 176.273438 103.480469 175.574219 105.5 175.429688 105.765625 C 175.378906 105.855469 174.957031 105.597656 172.949219 104.261719 C 169.511719 101.972656 169.429688 101.875 169.4375 100.046875 C 169.441406 99.222656 169.476562 98.878906 169.628906 98.144531 C 169.988281 96.449219 170.800781 93.9375 171.511719 92.285156 C 171.648438 91.964844 171.808594 91.605469 171.859375 91.480469 C 171.914062 91.363281 171.996094 91.261719 172.050781 91.261719 C 172.101562 91.261719 172.398438 91.445312 172.707031 91.683594 Z M 126.492188 97.667969 C 127.105469 97.839844 127.730469 98.226562 128.289062 98.796875 C 129.101562 99.613281 129.398438 100.332031 129.398438 101.507812 C 129.398438 102.261719 129.246094 102.960938 128.921875 103.675781 C 128.683594 104.199219 128.800781 104.179688 127.738281 103.875 C 126.796875 103.613281 126.074219 103.21875 125.453125 102.628906 C 124.46875 101.703125 123.921875 100.566406 123.902344 99.425781 C 123.894531 98.746094 123.992188 98.40625 124.296875 98.070312 C 124.78125 97.515625 125.480469 97.390625 126.492188 97.667969 Z M 199.632812 103.644531 C 200.375 103.765625 200.742188 103.859375 200.742188 103.949219 C 200.742188 104.082031 200.265625 104.84375 199.847656 105.375 C 198.996094 106.460938 197.730469 107.160156 196.90625 107.007812 C 196.546875 106.941406 196.070312 106.476562 195.902344 106.027344 C 195.460938 104.863281 196.140625 103.949219 197.65625 103.679688 C 198.265625 103.570312 199.039062 103.554688 199.632812 103.644531 Z M 161.375 105.21875 C 161.601562 105.445312 160.050781 106.34375 158.667969 106.789062 C 158.238281 106.925781 157.878906 107.03125 157.859375 107.015625 C 157.769531 106.917969 157.984375 106.539062 158.316406 106.207031 C 158.730469 105.804688 159.492188 105.375 160.085938 105.203125 C 160.480469 105.09375 161.257812 105.097656 161.375 105.21875 Z M 178.066406 110.972656 C 179.960938 112.816406 180.949219 114.683594 180.949219 116.414062 C 180.949219 117.742188 180.402344 119.035156 179.65625 119.472656 C 178.992188 119.859375 178.238281 119.636719 177.511719 118.835938 C 176.335938 117.542969 175.789062 114.890625 176.140625 112.179688 C 176.246094 111.390625 176.542969 109.9375 176.632812 109.796875 C 176.679688 109.714844 177.25 110.179688 178.066406 110.972656 Z M 156.300781 110.304688 C 156.488281 110.578125 157.125 111.429688 157.707031 112.191406 C 159.429688 114.433594 160.050781 115.425781 160.648438 116.835938 C 161.152344 118.046875 161.503906 119.492188 161.503906 120.363281 L 161.503906 120.730469 L 161.0625 120.421875 C 160.46875 120.011719 159.324219 119.472656 158.585938 119.257812 C 154.710938 118.136719 150.328125 119.546875 148.945312 122.359375 C 148.53125 123.1875 148.40625 123.8125 148.449219 124.75 C 148.515625 126.253906 149.214844 127.609375 150.433594 128.613281 C 150.988281 129.0625 152.226562 129.6875 152.933594 129.867188 C 154.988281 130.390625 157.1875 130.136719 159.1875 129.132812 C 160.046875 128.703125 160.585938 128.308594 161.429688 127.492188 L 162.140625 126.792969 L 162.113281 127.484375 C 162.09375 128.046875 162.050781 128.253906 161.90625 128.558594 C 161.449219 129.546875 160.15625 130.210938 158.253906 130.441406 C 157.375 130.542969 155.472656 130.46875 154.351562 130.289062 C 152.136719 129.941406 147.664062 128.929688 145.554688 128.300781 C 142.917969 127.527344 140.835938 126.363281 139.367188 124.871094 L 139.003906 124.488281 L 139.085938 123.796875 C 139.328125 121.894531 138.917969 119.894531 137.902344 117.984375 C 137.714844 117.625 137.582031 117.347656 137.609375 117.363281 C 137.640625 117.375 137.832031 117.472656 138.035156 117.574219 C 139.1875 118.183594 140.933594 118.199219 142.601562 117.617188 C 144.808594 116.84375 146.738281 115.105469 147.375 113.320312 C 147.582031 112.726562 147.660156 111.699219 147.535156 111.121094 C 147.492188 110.917969 147.464844 110.746094 147.472656 110.730469 C 147.484375 110.726562 148.398438 110.636719 149.5 110.539062 C 153.089844 110.21875 154.597656 110.046875 155.914062 109.8125 C 155.941406 109.8125 156.113281 110.035156 156.300781 110.304688 Z M 189.523438 111.644531 C 189.675781 112.117188 189.800781 113.265625 189.695312 113.265625 C 189.605469 113.265625 189.21875 112.667969 189.039062 112.269531 C 188.859375 111.851562 188.796875 111.230469 188.910156 110.945312 L 188.992188 110.738281 L 189.183594 110.96875 C 189.289062 111.09375 189.441406 111.398438 189.523438 111.644531 Z M 145.417969 111.402344 C 145.824219 112.621094 144.789062 114.144531 142.925781 115.078125 C 140.882812 116.109375 138.460938 115.875 138.460938 114.648438 C 138.460938 114.273438 138.765625 113.707031 139.1875 113.292969 C 140.09375 112.414062 141.722656 111.734375 144.15625 111.222656 C 145.300781 110.988281 145.277344 110.980469 145.417969 111.402344 Z M 122.4375 116.539062 C 123.015625 117.332031 123.253906 118.046875 123.074219 118.484375 C 122.953125 118.765625 122.644531 118.980469 122.257812 119.042969 C 121.410156 119.1875 120.871094 118.066406 121.328125 117.105469 C 121.507812 116.726562 121.957031 116.171875 122.082031 116.171875 C 122.132812 116.171875 122.285156 116.335938 122.4375 116.539062 Z M 130.699219 120.882812 C 131.554688 121.085938 132.851562 121.878906 133.859375 122.820312 C 134.414062 123.339844 135.765625 124.855469 135.765625 124.964844 C 135.765625 125.007812 135.582031 125.222656 135.371094 125.449219 C 134.917969 125.921875 134.144531 126.351562 133.5 126.480469 C 132.863281 126.613281 131.675781 126.539062 131.113281 126.328125 C 129.058594 125.5625 127.984375 123.644531 128.636719 121.902344 C 128.953125 121.042969 129.738281 120.65625 130.699219 120.882812 Z M 157.097656 121.535156 C 157.851562 121.664062 158.695312 121.96875 159.320312 122.34375 C 159.84375 122.648438 160.882812 123.617188 160.882812 123.789062 C 160.882812 124.003906 160.183594 124.945312 159.652344 125.457031 C 157.734375 127.292969 154.863281 127.753906 152.75 126.578125 C 152.308594 126.328125 151.671875 125.699219 151.472656 125.304688 C 151.257812 124.882812 151.207031 124.191406 151.367188 123.722656 C 151.511719 123.285156 152.039062 122.683594 152.601562 122.324219 C 153.734375 121.589844 155.566406 121.265625 157.097656 121.535156 Z M 126.195312 130.640625 C 126.316406 130.992188 126.296875 131.421875 126.144531 131.816406 C 126 132.199219 125.679688 132.710938 125.585938 132.710938 C 125.488281 132.710938 125.515625 131.464844 125.613281 131.070312 C 125.722656 130.65625 125.910156 130.335938 126.027344 130.378906 C 126.074219 130.390625 126.144531 130.507812 126.195312 130.640625 Z M 148.246094 141.164062 C 148.398438 141.394531 148.675781 142.410156 148.78125 143.125 C 148.925781 144.050781 148.90625 146.640625 148.746094 147.691406 C 148.308594 150.597656 147.285156 153.019531 145.902344 154.398438 C 145.445312 154.859375 144.816406 155.28125 144.726562 155.191406 C 144.703125 155.164062 144.628906 154.839844 144.550781 154.457031 C 143.894531 151.054688 144.476562 147.414062 146.253906 143.78125 C 146.539062 143.199219 146.9375 142.464844 147.140625 142.15625 C 147.527344 141.558594 147.984375 141.011719 148.089844 141.011719 C 148.121094 141.011719 148.191406 141.082031 148.246094 141.164062 Z M 208.976562 241.074219 C 216.628906 241.496094 226.394531 243.21875 230.585938 244.886719 C 232.136719 245.503906 233.152344 246.160156 233.464844 246.757812 C 233.679688 247.152344 233.632812 247.378906 233.257812 247.730469 C 232.488281 248.464844 230.871094 248.851562 228.558594 248.847656 C 226.699219 248.847656 225.160156 248.644531 223.023438 248.125 C 218.46875 247.011719 212.082031 244.242188 208.414062 241.792969 C 207.929688 241.476562 207.5 241.164062 207.453125 241.109375 C 207.351562 240.984375 207.292969 240.984375 208.976562 241.074219 Z M 208.976562 241.074219 " fill-opacity="1" fill-rule="nonzero"/></g><g clip-path="url(#89739fe950)"><g clip-path="url(#89eca2d98c)"><g clip-path="url(#a4c662e686)"><path fill="#ff00c7" d="M 289.136719 274.015625 L 289.144531 270.714844 L 300.679688 270.8125 C 301.414062 270.796875 302.039062 270.199219 302.023438 269.464844 C 302.007812 268.726562 301.410156 268.101562 300.675781 268.117188 L 289.144531 268.019531 L 289.261719 257.144531 L 300.796875 257.242188 C 301.53125 257.226562 302.15625 256.628906 302.140625 255.894531 C 302.125 255.15625 301.527344 254.535156 300.792969 254.550781 L 289.261719 254.453125 L 289.269531 251.148438 C 289.292969 250.007812 288.394531 249.113281 287.253906 249.09375 C 286.277344 249.085938 285.4375 249.785156 285.234375 250.707031 L 272.640625 250.59375 C 268.808594 250.578125 265.679688 253.640625 265.660156 257.472656 L 265.636719 259.589844 C 264.023438 259.8125 261.304688 260.140625 257.839844 260.113281 L 254.90625 260.09375 L 254.835938 264.492188 L 257.769531 264.511719 C 261.234375 264.535156 263.933594 264.902344 265.546875 265.128906 L 265.519531 267.246094 C 265.5 271.078125 268.5625 274.207031 272.394531 274.226562 L 285.03125 274.300781 C 285.195312 275.210938 286.027344 275.9375 287.003906 275.945312 C 288.179688 276.011719 289.113281 275.15625 289.136719 274.015625 Z M 289.136719 274.015625 " fill-opacity="1" fill-rule="nonzero"/></g></g></g><g clip-path="url(#b02ef39a22)"><g clip-path="url(#55e50a0983)"><g clip-path="url(#938d29a6ef)"><path fill="#ff00c7" d="M 122.855469 83.882812 C 122.519531 87.023438 122.484375 90.191406 122.792969 93.332031 C 123.105469 96.472656 123.738281 99.597656 124.679688 102.609375 C 125.128906 104.050781 125.644531 105.480469 126.253906 106.859375 C 126.800781 108.089844 127.484375 109.371094 128.574219 110.207031 C 129.789062 111.140625 131.429688 111.507812 132.859375 110.839844 C 133.566406 110.511719 134.1875 110.0625 134.691406 109.453125 C 135.191406 108.847656 135.558594 108.128906 135.816406 107.363281 C 136.320312 105.855469 136.066406 104.171875 135.652344 102.675781 C 135.269531 101.289062 134.695312 99.960938 134.328125 98.570312 C 134.246094 98.25 134.171875 97.929688 134.109375 97.605469 L 134.179688 97.96875 C 134.019531 97.125 133.941406 96.265625 134.003906 95.40625 L 133.976562 95.765625 C 134.023438 95.210938 134.132812 94.664062 134.3125 94.140625 L 134.199219 94.472656 C 134.328125 94.109375 134.488281 93.765625 134.703125 93.441406 L 134.503906 93.734375 C 134.734375 93.398438 135.003906 93.097656 135.308594 92.828125 L 135.039062 93.0625 C 135.359375 92.785156 135.710938 92.550781 136.09375 92.363281 L 135.757812 92.527344 C 136.117188 92.355469 136.492188 92.226562 136.882812 92.152344 L 136.519531 92.21875 C 136.832031 92.164062 137.148438 92.144531 137.46875 92.167969 L 137.113281 92.140625 C 137.363281 92.164062 137.609375 92.214844 137.847656 92.292969 L 137.515625 92.179688 C 137.742188 92.257812 137.953125 92.363281 138.15625 92.496094 L 137.863281 92.300781 C 138.089844 92.453125 138.292969 92.632812 138.476562 92.835938 L 138.238281 92.566406 C 138.425781 92.785156 138.582031 93.019531 138.710938 93.273438 L 138.546875 92.941406 C 138.710938 93.273438 138.820312 93.625 138.890625 93.984375 L 138.824219 93.621094 C 138.953125 94.3125 138.953125 95.019531 138.902344 95.71875 L 138.929688 95.363281 C 138.839844 96.558594 138.582031 97.734375 138.445312 98.929688 C 138.292969 100.285156 138.242188 101.660156 138.414062 103.015625 C 138.585938 104.386719 138.9375 105.707031 139.546875 106.949219 C 140.082031 108.03125 140.785156 109.003906 141.660156 109.839844 C 143.308594 111.414062 145.675781 112.429688 147.980469 112.121094 C 150.21875 111.816406 152.355469 110.546875 153.386719 108.480469 C 153.949219 107.351562 154.101562 106.046875 153.957031 104.804688 C 153.8125 103.535156 153.433594 102.316406 153.128906 101.082031 C 153.0625 100.808594 152.996094 100.535156 152.941406 100.257812 L 153.011719 100.621094 C 152.890625 99.96875 152.847656 99.304688 152.894531 98.644531 L 152.867188 99 C 152.90625 98.515625 152.996094 98.035156 153.152344 97.570312 L 153.039062 97.902344 C 153.148438 97.59375 153.285156 97.300781 153.464844 97.027344 L 153.269531 97.320312 C 153.417969 97.097656 153.589844 96.894531 153.789062 96.714844 L 153.523438 96.953125 C 153.714844 96.785156 153.925781 96.644531 154.15625 96.53125 L 153.824219 96.695312 C 154.050781 96.585938 154.289062 96.507812 154.539062 96.457031 L 154.171875 96.527344 C 154.421875 96.484375 154.671875 96.46875 154.921875 96.488281 L 154.566406 96.460938 C 154.832031 96.484375 155.089844 96.542969 155.34375 96.628906 L 155.011719 96.511719 C 155.367188 96.636719 155.703125 96.8125 156.019531 97.023438 L 155.722656 96.824219 C 156.269531 97.195312 156.75 97.644531 157.1875 98.136719 L 156.949219 97.867188 C 158.082031 99.152344 158.789062 100.734375 159.90625 102.027344 C 160.582031 102.8125 161.308594 103.515625 162.222656 104.019531 C 163.039062 104.464844 164.042969 104.710938 164.972656 104.570312 C 166.105469 104.402344 167.152344 103.871094 167.847656 102.9375 C 168.542969 102.003906 168.914062 100.863281 168.964844 99.667969 C 169.0625 97.425781 167.597656 95.421875 165.816406 94.214844 C 165.253906 93.835938 164.679688 93.492188 164.0625 93.207031 C 163.445312 92.921875 162.804688 92.695312 162.164062 92.480469 C 160.945312 92.070312 159.699219 91.753906 158.484375 91.332031 L 158.816406 91.445312 C 157.878906 91.117188 156.96875 90.722656 156.136719 90.175781 L 156.429688 90.371094 C 155.871094 90 155.359375 89.566406 154.914062 89.066406 L 155.152344 89.335938 C 154.820312 88.957031 154.535156 88.546875 154.3125 88.097656 L 154.476562 88.429688 C 154.296875 88.058594 154.160156 87.671875 154.078125 87.265625 L 154.148438 87.628906 C 154.070312 87.207031 154.046875 86.78125 154.078125 86.355469 L 154.050781 86.710938 C 154.105469 85.984375 154.296875 85.28125 154.53125 84.597656 L 154.417969 84.929688 C 154.640625 84.28125 154.90625 83.648438 155.148438 83.007812 C 155.410156 82.320312 155.6875 81.609375 155.820312 80.882812 C 156.042969 79.628906 155.960938 78.222656 155.449219 77.046875 C 155.164062 76.390625 154.804688 75.792969 154.265625 75.308594 C 153.773438 74.863281 153.113281 74.527344 152.449219 74.425781 C 151.492188 74.285156 150.566406 74.476562 149.742188 74.980469 C 148.96875 75.453125 148.410156 76.171875 147.929688 76.917969 C 147.054688 78.28125 146.742188 79.90625 145.851562 81.265625 L 146.046875 80.972656 C 145.828125 81.300781 145.578125 81.609375 145.28125 81.875 L 145.550781 81.640625 C 145.347656 81.816406 145.132812 81.96875 144.894531 82.089844 L 145.226562 81.925781 C 145.015625 82.027344 144.800781 82.101562 144.574219 82.148438 L 144.9375 82.078125 C 144.703125 82.121094 144.472656 82.136719 144.238281 82.125 L 144.59375 82.152344 C 144.339844 82.128906 144.09375 82.078125 143.851562 81.992188 L 144.183594 82.109375 C 143.855469 81.992188 143.550781 81.828125 143.261719 81.632812 L 143.554688 81.832031 C 143.0625 81.496094 142.625 81.097656 142.199219 80.6875 C 141.773438 80.277344 141.382812 79.839844 140.929688 79.472656 C 140.375 79.023438 139.75 78.636719 139.078125 78.394531 C 138.347656 78.132812 137.554688 77.929688 136.773438 78.042969 C 136.25 78.117188 135.792969 78.253906 135.335938 78.539062 C 134.882812 78.824219 134.578125 79.214844 134.304688 79.652344 C 134.128906 79.9375 134.128906 80.402344 134.230469 80.707031 C 134.339844 81.03125 134.609375 81.367188 134.925781 81.507812 C 135.238281 81.648438 135.636719 81.714844 135.980469 81.582031 C 136.324219 81.445312 136.574219 81.214844 136.777344 80.886719 C 136.796875 80.855469 136.816406 80.824219 136.835938 80.796875 L 136.640625 81.089844 C 136.730469 80.960938 136.832031 80.84375 136.949219 80.742188 L 136.679688 80.976562 C 136.796875 80.882812 136.917969 80.804688 137.050781 80.738281 L 136.71875 80.902344 C 136.871094 80.832031 137.023438 80.78125 137.1875 80.75 L 136.824219 80.820312 C 137.046875 80.777344 137.269531 80.769531 137.496094 80.785156 L 137.140625 80.757812 C 137.476562 80.78125 137.804688 80.859375 138.125 80.964844 L 137.792969 80.847656 C 138.222656 81 138.625 81.203125 139.003906 81.453125 L 138.710938 81.257812 C 139.476562 81.773438 140.074219 82.496094 140.75 83.117188 C 141.542969 83.84375 142.433594 84.46875 143.480469 84.761719 C 144.621094 85.078125 145.925781 84.816406 146.871094 84.117188 C 147.816406 83.414062 148.496094 82.363281 148.984375 81.285156 C 149.476562 80.195312 149.808594 79.050781 150.476562 78.042969 L 150.28125 78.335938 C 150.519531 77.980469 150.792969 77.648438 151.113281 77.363281 L 150.847656 77.601562 C 151.046875 77.429688 151.257812 77.28125 151.492188 77.160156 L 151.160156 77.324219 C 151.359375 77.226562 151.5625 77.15625 151.777344 77.109375 L 151.414062 77.179688 C 151.628906 77.140625 151.84375 77.125 152.0625 77.140625 L 151.707031 77.113281 C 151.898438 77.128906 152.089844 77.164062 152.273438 77.226562 L 151.941406 77.109375 C 152.132812 77.175781 152.308594 77.261719 152.476562 77.375 L 152.183594 77.179688 C 152.359375 77.300781 152.519531 77.445312 152.664062 77.605469 L 152.425781 77.335938 C 152.625 77.5625 152.785156 77.816406 152.917969 78.085938 L 152.757812 77.753906 C 152.9375 78.128906 153.0625 78.527344 153.144531 78.9375 L 153.074219 78.574219 C 153.171875 79.078125 153.199219 79.597656 153.160156 80.113281 L 153.191406 79.753906 C 153.140625 80.367188 152.976562 80.949219 152.777344 81.527344 L 152.894531 81.191406 C 152.488281 82.347656 151.980469 83.464844 151.636719 84.644531 C 151.269531 85.90625 151.1875 87.246094 151.554688 88.523438 C 151.9375 89.839844 152.820312 91.007812 153.863281 91.886719 C 154.890625 92.753906 156.089844 93.375 157.351562 93.835938 C 158.816406 94.367188 160.332031 94.746094 161.804688 95.253906 L 161.472656 95.136719 C 162.460938 95.484375 163.417969 95.910156 164.292969 96.492188 L 164 96.292969 C 164.523438 96.648438 165.007812 97.054688 165.433594 97.527344 L 165.195312 97.261719 C 165.527344 97.636719 165.808594 98.050781 166.027344 98.5 L 165.867188 98.167969 C 166.023438 98.496094 166.140625 98.832031 166.210938 99.191406 L 166.140625 98.828125 C 166.210938 99.210938 166.230469 99.597656 166.203125 99.984375 L 166.230469 99.625 C 166.195312 99.996094 166.121094 100.355469 166.003906 100.703125 L 166.121094 100.371094 C 166.007812 100.691406 165.859375 101 165.667969 101.285156 L 165.863281 100.988281 C 165.707031 101.222656 165.523438 101.433594 165.3125 101.621094 L 165.582031 101.382812 C 165.394531 101.542969 165.195312 101.675781 164.976562 101.789062 L 165.308594 101.625 C 165.085938 101.734375 164.851562 101.808594 164.609375 101.859375 L 164.972656 101.789062 C 164.703125 101.839844 164.429688 101.859375 164.15625 101.839844 L 164.511719 101.867188 C 164.246094 101.84375 163.988281 101.789062 163.734375 101.703125 L 164.070312 101.820312 C 163.71875 101.699219 163.394531 101.527344 163.085938 101.320312 L 163.378906 101.515625 C 162.878906 101.175781 162.4375 100.753906 162.039062 100.300781 L 162.273438 100.570312 C 161.828125 100.0625 161.429688 99.511719 161.0625 98.945312 C 160.695312 98.375 160.378906 97.8125 159.996094 97.273438 C 159.132812 96.0625 158.046875 94.890625 156.691406 94.226562 C 155.230469 93.511719 153.367188 93.523438 152.0625 94.597656 C 151.417969 95.125 150.902344 95.785156 150.609375 96.574219 C 150.296875 97.410156 150.152344 98.234375 150.128906 99.125 C 150.078125 101.003906 150.816406 102.773438 151.167969 104.59375 L 151.097656 104.230469 C 151.21875 104.878906 151.285156 105.535156 151.242188 106.195312 L 151.269531 105.839844 C 151.238281 106.25 151.160156 106.65625 151.03125 107.046875 L 151.148438 106.714844 C 151.019531 107.082031 150.84375 107.429688 150.628906 107.753906 L 150.828125 107.460938 C 150.578125 107.824219 150.285156 108.15625 149.953125 108.445312 L 150.222656 108.210938 C 149.839844 108.539062 149.421875 108.816406 148.972656 109.039062 L 149.304688 108.875 C 148.816406 109.113281 148.300781 109.285156 147.769531 109.386719 L 148.132812 109.316406 C 147.652344 109.402344 147.167969 109.433594 146.679688 109.398438 L 147.035156 109.425781 C 146.511719 109.386719 145.996094 109.269531 145.5 109.097656 L 145.832031 109.214844 C 145.269531 109.015625 144.738281 108.746094 144.242188 108.414062 L 144.535156 108.609375 C 143.953125 108.214844 143.429688 107.746094 142.964844 107.214844 L 143.203125 107.484375 C 142.699219 106.90625 142.269531 106.265625 141.929688 105.574219 L 142.09375 105.910156 C 141.6875 105.082031 141.410156 104.199219 141.234375 103.292969 L 141.304688 103.65625 C 141.0625 102.386719 141.023438 101.085938 141.121094 99.796875 L 141.09375 100.152344 C 141.175781 99.101562 141.378906 98.066406 141.519531 97.023438 C 141.664062 95.980469 141.789062 94.832031 141.632812 93.753906 C 141.460938 92.527344 141.003906 91.394531 140.082031 90.535156 C 139.292969 89.796875 138.292969 89.460938 137.234375 89.402344 C 136.296875 89.351562 135.382812 89.660156 134.554688 90.074219 C 133.796875 90.453125 133.09375 91.03125 132.578125 91.710938 C 131.3125 93.386719 131.035156 95.582031 131.339844 97.617188 C 131.515625 98.78125 131.820312 99.914062 132.203125 101.023438 C 132.585938 102.132812 133.019531 103.277344 133.253906 104.453125 L 133.183594 104.089844 C 133.308594 104.742188 133.363281 105.398438 133.316406 106.058594 L 133.34375 105.703125 C 133.3125 106.085938 133.234375 106.460938 133.109375 106.824219 L 133.222656 106.492188 C 133.089844 106.871094 132.910156 107.230469 132.691406 107.566406 L 132.886719 107.273438 C 132.675781 107.582031 132.433594 107.867188 132.152344 108.113281 L 132.417969 107.878906 C 132.199219 108.066406 131.960938 108.230469 131.703125 108.363281 L 132.035156 108.199219 C 131.796875 108.316406 131.546875 108.402344 131.285156 108.449219 L 131.648438 108.382812 C 131.433594 108.417969 131.21875 108.429688 131.003906 108.417969 L 131.359375 108.445312 C 131.125 108.425781 130.894531 108.378906 130.671875 108.304688 L 131.003906 108.421875 C 130.753906 108.332031 130.519531 108.214844 130.296875 108.070312 L 130.59375 108.265625 C 130.292969 108.066406 130.03125 107.824219 129.789062 107.554688 L 130.027344 107.824219 C 129.582031 107.308594 129.230469 106.722656 128.929688 106.113281 L 129.09375 106.445312 C 128.539062 105.308594 128.101562 104.109375 127.691406 102.914062 C 127.253906 101.644531 126.875 100.347656 126.554688 99.039062 C 126.371094 98.304688 126.210938 97.5625 126.066406 96.816406 L 126.136719 97.179688 C 125.5625 94.160156 125.292969 91.085938 125.347656 88.011719 C 125.363281 87.140625 125.402344 86.273438 125.46875 85.40625 L 125.441406 85.761719 C 125.476562 85.324219 125.515625 84.882812 125.5625 84.445312 C 125.605469 84.066406 125.578125 83.71875 125.359375 83.394531 C 125.171875 83.117188 124.828125 82.867188 124.496094 82.8125 C 124.136719 82.75 123.742188 82.792969 123.441406 83.015625 C 123.167969 83.21875 122.898438 83.527344 122.859375 83.878906 Z M 122.855469 83.882812 " fill-opacity="1" fill-rule="nonzero"/></g></g></g><g clip-path="url(#11b5ecc336)"><path fill="#c1ff72" d="M 54.613281 234.734375 L 101.707031 234.734375 L 101.707031 275.285156 L 54.613281 275.285156 Z M 54.613281 234.734375 " fill-opacity="1" fill-rule="nonzero"/></g><g fill="#ff00c7" fill-opacity="1"><g transform="translate(104.282533, 309.00979)"><g><path d="M 22.910156 0 C 26.113281 0 28.738281 -2.515625 28.910156 -5.65625 L 28.910156 -11.65625 L 17.3125 -11.65625 L 17.3125 -6.855469 C 17.3125 -5.769531 16.398438 -4.914062 15.371094 -4.914062 C 14.285156 -4.914062 13.425781 -5.769531 13.425781 -6.855469 L 13.425781 -26.167969 C 13.425781 -27.253906 14.285156 -28.113281 15.371094 -28.113281 C 16.398438 -28.113281 17.3125 -27.253906 17.3125 -26.167969 L 17.3125 -22.453125 L 28.910156 -22.453125 L 28.910156 -27.367188 C 28.738281 -30.511719 26.113281 -32.96875 22.910156 -32.96875 L 7.542969 -32.96875 C 4.457031 -32.96875 1.828125 -30.511719 1.714844 -27.425781 L 1.714844 -5.597656 C 1.828125 -2.457031 4.457031 0 7.542969 0 Z M 22.910156 0 "/></g></g></g><g fill="#ff00c7" fill-opacity="1"><g transform="translate(133.708258, 309.00979)"><g><path d="M 8.511719 -27.539062 C 11.597656 -27.539062 14.113281 -30.054688 14.113281 -33.195312 C 14.113281 -36.28125 11.597656 -38.796875 8.511719 -38.796875 C 5.371094 -38.796875 2.855469 -36.28125 2.855469 -33.195312 C 2.855469 -30.054688 5.371094 -27.539062 8.511719 -27.539062 Z M 17.199219 0 L 17.199219 -11.714844 L 15.253906 -11.714844 L 15.253906 -28.398438 C 13.542969 -26.113281 10.742188 -25.199219 8.457031 -25.199219 C 5.941406 -25.199219 3.429688 -26.28125 1.714844 -28.398438 L 1.714844 -21.3125 L 3.65625 -21.3125 L 3.65625 -11.714844 L 1.714844 -11.714844 L 1.714844 0 Z M 17.199219 0 "/></g></g></g><g fill="#ff00c7" fill-opacity="1"><g transform="translate(151.420818, 309.00979)"><g><path d="M 31.027344 0 L 31.027344 -11.714844 L 29.082031 -11.714844 L 29.082031 -38.796875 L 15.425781 -38.796875 L 15.425781 -34.796875 C 16.570312 -34.339844 17.371094 -33.253906 17.371094 -31.996094 L 17.371094 -30.054688 C 17.371094 -31.652344 16.054688 -32.96875 14.457031 -32.96875 L 7.542969 -32.96875 C 4.457031 -32.96875 1.886719 -30.511719 1.714844 -27.425781 L 1.714844 -5.597656 C 1.886719 -2.457031 4.457031 0 7.542969 0 L 14.457031 0 C 16.054688 0 17.371094 -1.3125 17.371094 -2.914062 L 17.371094 0 Z M 15.425781 -4.914062 C 14.339844 -4.914062 13.484375 -5.769531 13.484375 -6.855469 L 13.484375 -26.167969 C 13.484375 -27.253906 14.339844 -28.113281 15.425781 -28.113281 C 16.511719 -28.113281 17.371094 -27.253906 17.371094 -26.167969 L 17.371094 -6.855469 C 17.371094 -5.769531 16.511719 -4.914062 15.425781 -4.914062 Z M 15.425781 -4.914062 "/></g></g></g><g fill="#ff00c7" fill-opacity="1"><g transform="translate(182.960617, 309.00979)"><g><path d="M 22.910156 0 C 26.113281 0 28.738281 -2.515625 28.910156 -5.65625 L 28.910156 -11.65625 L 17.3125 -11.65625 L 17.3125 -6.855469 C 17.3125 -5.769531 16.398438 -4.914062 15.371094 -4.914062 C 14.285156 -4.914062 13.425781 -5.769531 13.425781 -6.855469 L 13.425781 -15.542969 L 28.910156 -15.542969 L 28.910156 -27.367188 C 28.738281 -30.511719 26.113281 -32.96875 22.910156 -32.96875 L 7.542969 -32.96875 C 4.457031 -32.96875 1.828125 -30.511719 1.714844 -27.425781 L 1.714844 -5.597656 C 1.828125 -2.457031 4.457031 0 7.542969 0 Z M 17.3125 -19.484375 L 13.425781 -19.484375 L 13.425781 -26.167969 C 13.425781 -27.253906 14.285156 -28.113281 15.371094 -28.113281 C 16.398438 -28.113281 17.3125 -27.253906 17.3125 -26.167969 Z M 17.3125 -19.484375 "/></g></g></g><g fill="#ff00c7" fill-opacity="1"><g transform="translate(212.386344, 309.00979)"><g><path d="M 22.96875 0 C 26.167969 0 28.796875 -2.515625 28.96875 -5.65625 L 28.96875 -27.425781 C 28.855469 -30.511719 26.28125 -32.96875 23.140625 -32.96875 L 7.542969 -32.96875 C 4.457031 -32.96875 1.828125 -30.511719 1.714844 -27.425781 L 1.714844 -5.597656 C 1.828125 -2.457031 4.457031 0 7.542969 0 Z M 15.425781 -4.914062 C 14.339844 -4.914062 13.484375 -5.769531 13.484375 -6.855469 L 13.484375 -26.167969 C 13.484375 -27.253906 14.339844 -28.113281 15.425781 -28.113281 C 16.511719 -28.113281 17.371094 -27.253906 17.371094 -26.167969 L 17.371094 -6.855469 C 17.371094 -5.769531 16.511719 -4.914062 15.425781 -4.914062 Z M 15.425781 -4.914062 "/></g></g></g><g fill="#ff00c7" fill-opacity="1"><g transform="translate(241.869201, 309.00979)"><g><path d="M 17.199219 0 L 17.199219 -11.714844 L 15.253906 -11.714844 L 15.253906 -38.796875 L 1.714844 -38.796875 L 1.714844 -27.140625 L 3.65625 -27.140625 L 3.65625 -11.714844 L 1.714844 -11.714844 L 1.714844 0 Z M 17.199219 0 "/></g></g></g><g fill="#ff00c7" fill-opacity="1"><g transform="translate(259.581763, 309.00979)"><g><path d="M 22.96875 0 C 26.167969 0 28.796875 -2.515625 28.96875 -5.65625 L 28.96875 -27.425781 C 28.855469 -30.511719 26.28125 -32.96875 23.140625 -32.96875 L 7.542969 -32.96875 C 4.457031 -32.96875 1.828125 -30.511719 1.714844 -27.425781 L 1.714844 -5.597656 C 1.828125 -2.457031 4.457031 0 7.542969 0 Z M 15.425781 -4.914062 C 14.339844 -4.914062 13.484375 -5.769531 13.484375 -6.855469 L 13.484375 -26.167969 C 13.484375 -27.253906 14.339844 -28.113281 15.425781 -28.113281 C 16.511719 -28.113281 17.371094 -27.253906 17.371094 -26.167969 L 17.371094 -6.855469 C 17.371094 -5.769531 16.511719 -4.914062 15.425781 -4.914062 Z M 15.425781 -4.914062 "/></g></g></g><g fill="#ff00c7" fill-opacity="1"><g transform="translate(289.06462, 309.00979)"><g><path d="M 24.226562 5.597656 C 28.054688 5.140625 30.855469 1.828125 30.855469 -1.941406 C 30.625 -6 28.167969 -8.914062 24.226562 -9.425781 L 8.914062 -9.425781 C 8.398438 -9.425781 7.941406 -9.828125 7.941406 -10.398438 C 7.941406 -10.96875 8.398438 -11.371094 8.914062 -11.371094 L 23.199219 -11.371094 C 26.28125 -11.371094 28.855469 -13.828125 29.027344 -16.96875 L 29.027344 -25.996094 L 30.96875 -25.996094 L 30.96875 -31.882812 L 17.371094 -31.882812 L 17.371094 -30.167969 C 17.371094 -31.769531 16.054688 -33.082031 14.457031 -33.082031 L 7.542969 -33.082031 C 4.34375 -33.082031 1.714844 -30.453125 1.714844 -27.253906 L 1.714844 -18.855469 C 1.769531 -17.597656 2.285156 -16.398438 3.085938 -15.371094 C 2.171875 -14.113281 1.714844 -12.683594 1.714844 -11.257812 C 1.714844 -7.597656 4.628906 -4.285156 8.570312 -4.113281 L 15.484375 -4.113281 C 16.570312 -4.113281 17.425781 -3.257812 17.425781 -2.171875 C 17.425781 -1.144531 16.570312 -0.230469 15.484375 -0.230469 C 14.226562 -0.230469 13.371094 -1.144531 13.371094 -2.171875 L 1.714844 -2.171875 L 1.714844 -1.941406 C 1.714844 1.828125 4.515625 5.085938 8.34375 5.597656 Z M 15.425781 -15.253906 C 14.339844 -15.253906 13.484375 -16.113281 13.484375 -17.199219 L 13.484375 -26.28125 C 13.484375 -27.367188 14.339844 -28.226562 15.425781 -28.226562 C 16.457031 -28.226562 17.371094 -27.367188 17.371094 -26.28125 L 17.371094 -17.199219 C 17.371094 -16.113281 16.457031 -15.253906 15.425781 -15.253906 Z M 15.425781 -15.253906 "/></g></g></g><g fill="#ff00c7" fill-opacity="1"><g transform="translate(320.547284, 309.00979)"><g><path d="M 24.511719 5.828125 C 27.539062 5.828125 30.054688 3.542969 30.339844 0.570312 L 32.511719 -21.3125 L 34.625 -21.3125 L 34.625 -32.96875 L 18.96875 -32.96875 L 18.96875 -21.3125 L 20.742188 -21.3125 L 19.199219 -5.65625 L 15.3125 -21.3125 L 15.3125 -32.96875 L 1.714844 -32.96875 L 1.714844 -21.3125 L 3.257812 -21.3125 L 7.429688 -4.457031 C 8.113281 -1.828125 10.457031 0 13.140625 0 L 18.625 0 C 17.027344 1.144531 15.140625 1.769531 13.140625 1.769531 L 13.140625 5.828125 Z M 24.511719 5.828125 "/></g></g></g><g fill="#ff00c7" fill-opacity="1"><g transform="translate(21.430923, 326.645013)"><g><path d="M 65.550781 0 C 74.496094 0 81.976562 -6.992188 82.628906 -16.101562 L 82.628906 -40.5 C 82.628906 -46.03125 79.699219 -51.398438 74.984375 -54.328125 L 38.222656 -78.234375 L 38.222656 -92.0625 C 38.222656 -95.152344 40.664062 -97.59375 43.753906 -97.59375 C 46.84375 -97.59375 49.285156 -95.152344 49.285156 -92.0625 L 49.285156 -77.261719 L 82.628906 -77.261719 L 82.628906 -94.5 C 81.976562 -103.449219 74.496094 -110.441406 65.550781 -110.441406 L 21.957031 -110.441406 C 13.011719 -110.441406 5.53125 -103.449219 4.878906 -94.5 L 4.878906 -69.941406 C 4.878906 -64.410156 7.808594 -59.042969 12.523438 -55.953125 L 49.285156 -32.207031 L 49.285156 -19.191406 C 49.285156 -16.101562 46.84375 -13.664062 43.753906 -13.664062 C 40.664062 -13.664062 38.222656 -16.101562 38.222656 -19.191406 L 38.222656 -33.34375 L 4.878906 -33.34375 L 4.878906 -16.101562 C 5.53125 -6.992188 13.011719 0 21.957031 0 Z M 65.550781 0 "/></g></g></g></svg>